<svg xmlns="http://www.w3.org/2000/svg" xmlns:xlink="http://www.w3.org/1999/xlink" id="Livello_1" x="0" y="0" focusable="false" version="1.1" viewBox="0 0 512 512" xml:space="preserve" style="enable-background:new 0 0 512 512"><style type="text/css">.st0{fill:#f44336}</style><path d="M256,8C119,8,8,119,8,256s111,248,248,248s248-111,248-248S393,8,256,8z M348.5,321L348.5,321l-20,25	c-5.5,6.9-15.6,8-22.5,2.5c0,0,0,0,0,0l0,0l-67-49.7c-9.5-7.6-15-19.1-15-31.2V112c0-8.8,7.2-16,16-16h32c8.8,0,16,7.2,16,16v144	l58,42.5C352.9,304,354,314.1,348.5,321C348.5,321,348.5,321,348.5,321z" class="st0"/></svg>