<svg xmlns="http://www.w3.org/2000/svg" xmlns:xlink="http://www.w3.org/1999/xlink" id="Livello_1" x="0" y="0" focusable="false" version="1.1" viewBox="0 0 640 512" xml:space="preserve" style="enable-background:new 0 0 640 512"><style type="text/css">.st0{fill:#566787}</style><g><path d="M150,226.6h22.9c16.5,0,27.8,9.9,27.8,25.2c0,15.3-11.3,25.2-27.8,25.2H150V226.6z M172.4,267.4 c10,0,16.6-6,16.6-15.6c0-9.6-6.6-15.6-16.6-15.6h-10.7v31.3H172.4z" class="st0"/><path d="M248.5,267.7v9.4h-39v-50.4h38.1v9.4h-26.5v10.9h23.4v9.1h-23.4v11.7H248.5z" class="st0"/><path d="M257.8,226.6h11.7v40.9h25.3v9.5h-36.9V226.6z" class="st0"/><path d="M340.3,267.7v9.4h-39v-50.4h38.1v9.4h-26.5v10.9h23.4v9.1h-23.4v11.7H340.3z" class="st0"/><path d="M360.1,236.1h-16.1v-9.5h43.9v9.5h-16.1V277h-11.7V236.1z" class="st0"/><path d="M433.2,267.7v9.4h-39v-50.4h38.1v9.4h-26.5v10.9h23.4v9.1h-23.4v11.7H433.2z" class="st0"/><path d="M442.4,226.6h22.9c16.5,0,27.8,9.9,27.8,25.2c0,15.3-11.3,25.2-27.8,25.2h-22.9V226.6z M464.8,267.4 c10,0,16.6-6,16.6-15.6c0-9.6-6.6-15.6-16.6-15.6h-10.7v31.3H464.8z" class="st0"/></g></svg>