<svg xmlns="http://www.w3.org/2000/svg" xmlns:xlink="http://www.w3.org/1999/xlink" width="1200" height="1200" enable-background="new 0 0 1200 1200" version="1.1" xml:space="preserve"><rect id="backgroundrect" width="100%" height="100%" x="0" y="0" fill="none" stroke="none"/><g class="currentLayer"><title>Layer 1</title><path id="svg_1" fill="#fff" fill-opacity="1" stroke="#fff" stroke-opacity="1" d="M1072.484,220.745v-66.732l-18.368-1.21c-2.82-0.184-70.057-4.276-161.583,19.235	c-80.313,20.629-194.513,67.274-292.533,172.373C501.981,239.313,387.78,192.668,307.466,172.04	c-91.525-23.511-158.762-19.424-161.582-19.235l-18.368,1.21v66.732H50v790.113h494.831c0,20.281,16.442,36.723,36.723,36.723	h36.893c20.281,0,36.722-16.441,36.722-36.723H1150V220.745H1072.484z M89.32,260.065h38.196v587.671l19.232,0.419	c176.318,3.833,294.617,54.773,363.435,97.47l-360.358-57.373c-10.698-1.713-20.798,5.598-22.507,16.323	c-1.707,10.725,5.602,20.8,16.325,22.505l279.245,44.459H89.32V260.065z M580.341,946.53	C522.919,899.877,391.688,818.6,166.835,809.442V191.826c25.083,0.399,73.668,3.458,132.277,18.665	c77.222,20.036,188.114,65.904,281.229,170.667V946.53z M619.661,381.159c93.115-104.763,204.006-150.631,281.229-170.667	c58.618-15.209,107.203-18.266,132.275-18.665v617.616C808.312,818.6,677.081,899.877,619.661,946.53V381.159z M1110.681,971.539	H777.113l279.245-44.459c10.723-1.705,18.032-11.781,16.325-22.505c-1.709-10.725-11.779-18.055-22.507-16.323l-360.348,57.371	c68.826-42.703,187.119-93.636,363.424-97.468l19.232-0.419V260.065h38.196V971.539z" class="selected"/></g></svg>