<svg xmlns="http://www.w3.org/2000/svg" xmlns:xlink="http://www.w3.org/1999/xlink" id="Livello_1" x="0" y="0" focusable="false" version="1.1" viewBox="0 0 448 512" xml:space="preserve" style="enable-background:new 0 0 448 512"><style type="text/css">.st0{fill:#fff}</style><path d="M224,256c70.7,0,128-57.3,128-128S294.7,0,224,0S96,57.3,96,128S153.3,256,224,256z M313.6,288h-16.7	c-22.2,10.2-46.9,16-72.9,16s-50.6-5.8-72.9-16h-16.7C60.2,288,0,348.2,0,422.4V464c0,26.5,21.5,48,48,48h352c26.5,0,48-21.5,48-48	v-41.6C448,348.2,387.8,288,313.6,288z" class="st0"/></svg>