<svg xmlns="http://www.w3.org/2000/svg" xmlns:xlink="http://www.w3.org/1999/xlink" id="Livello_1" x="0" y="0" version="1.1" viewBox="0 0 271 151" xml:space="preserve" style="enable-background:new 0 0 271 151"><style type="text/css">.st0{fill:#e2eef4}.st1{fill:#fff}.st2{fill:#b5d2e1}.st3{fill:#e1eef4}.st4{fill:none}.st5{fill:#fff;stroke:#b5d2e1}.st6{fill:#f2f6f8}.st7{opacity:.5;enable-background:new}.st8{fill:#ed7463}.st9{fill:none;stroke:#b5d2e1;stroke-linecap:square}.st10{opacity:.5;fill:#ed7463;enable-background:new}</style><polygon id="Rectangle-10-Copy" points="0 14 271 14 271 151 0 151" class="st0"/><path id="top" d="M2.4,0C1.1,0,0,1.1,0,2.4v11.1h271V2.4c0-1.3-1.1-2.4-2.4-2.4H2.4z" class="st1"/><rect id="Rectangle-3" width="271" height="1" y="13" class="st2"/><path id="Rectangle-Copy-7" d="M227.2,90.5c0-1.7,1.3-3,3-3h24.3c1.7,0,3,1.3,3,3v10c0,1.7-1.3,3-3,3h-24.3	c-1.7,0-3-1.3-3-3V90.5z" class="st3"/><circle id="Oval-3-Copy-4" cx="204" cy="51.9" r="5.3" class="st4"/><circle id="Oval-3-Copy-5" cx="204" cy="75.9" r="5.3" class="st4"/><circle id="Oval-3-Copy-7" cx="204" cy="123.1" r="5.3" class="st4"/><g><g><rect width="72.7" height="101.9" x="185.4" y="28.5" class="st5"/><rect width="71.4" height="17" x="186.1" y="29.2" class="st6"/></g><g class="st7"><path d="M207.1,35.9h-1.7v-0.8h4.3v0.8h-1.7v4.6h-0.9V35.9z" class="st8"/><path d="M210.4,35.9c-0.1-0.1-0.2-0.2-0.2-0.4s0.1-0.3,0.2-0.4c0.1-0.1,0.3-0.2,0.4-0.2c0.2,0,0.3,0.1,0.4,0.2 c0.1,0.1,0.2,0.2,0.2,0.4s-0.1,0.3-0.2,0.4c-0.1,0.1-0.3,0.2-0.4,0.2C210.7,36.1,210.6,36,210.4,35.9z M210.4,36.7h0.9v3.9h-0.9 V36.7z" class="st8"/><path d="M212.5,35.1h0.9v5.4h-0.9V35.1z" class="st8"/><path d="M215.3,40.4c-0.3-0.2-0.6-0.4-0.8-0.7c-0.2-0.3-0.3-0.7-0.3-1c0-0.4,0.1-0.7,0.3-1s0.4-0.6,0.8-0.8 c0.3-0.2,0.7-0.3,1.1-0.3c0.4,0,0.8,0.1,1.1,0.3c0.3,0.2,0.6,0.4,0.7,0.7c0.2,0.3,0.2,0.6,0.2,1c0,0.1,0,0.2,0,0.3h-3.3 c0,0.4,0.2,0.6,0.4,0.8c0.2,0.2,0.5,0.3,0.9,0.3c0.3,0,0.5-0.1,0.7-0.2c0.2-0.1,0.3-0.3,0.5-0.4l0.8,0.3c-0.2,0.3-0.5,0.6-0.8,0.8 c-0.3,0.2-0.7,0.3-1.2,0.3C216,40.6,215.6,40.6,215.3,40.4z M217.5,38.1c0-0.1-0.1-0.3-0.1-0.4s-0.2-0.2-0.4-0.3 c-0.2-0.1-0.4-0.1-0.6-0.1c-0.3,0-0.5,0.1-0.7,0.2s-0.3,0.4-0.4,0.6H217.5z" class="st8"/><path d="M219.4,35.1h1.9c0.6,0,1.2,0.1,1.6,0.3c0.5,0.2,0.8,0.5,1.1,1c0.2,0.4,0.4,0.9,0.4,1.4c0,0.5-0.1,1-0.4,1.4 c-0.2,0.4-0.6,0.7-1.1,1c-0.5,0.2-1,0.3-1.6,0.3h-1.9V35.1z M221.3,39.7c0.7,0,1.2-0.2,1.6-0.5c0.4-0.3,0.6-0.8,0.6-1.4 c0-0.6-0.2-1.1-0.6-1.4c-0.4-0.3-0.9-0.5-1.6-0.5h-1v3.8H221.3z" class="st8"/><path d="M226,40.4c-0.3-0.2-0.6-0.4-0.8-0.7c-0.2-0.3-0.3-0.7-0.3-1c0-0.4,0.1-0.7,0.3-1s0.4-0.6,0.8-0.8 c0.3-0.2,0.7-0.3,1.1-0.3c0.4,0,0.8,0.1,1.1,0.3c0.3,0.2,0.6,0.4,0.7,0.7c0.2,0.3,0.2,0.6,0.2,1c0,0.1,0,0.2,0,0.3h-3.3 c0,0.4,0.2,0.6,0.4,0.8c0.2,0.2,0.5,0.3,0.9,0.3c0.3,0,0.5-0.1,0.7-0.2c0.2-0.1,0.3-0.3,0.5-0.4l0.8,0.3c-0.2,0.3-0.5,0.6-0.8,0.8 c-0.3,0.2-0.7,0.3-1.2,0.3C226.7,40.6,226.3,40.6,226,40.4z M228.2,38.1c0-0.1-0.1-0.3-0.1-0.4s-0.2-0.2-0.4-0.3 c-0.2-0.1-0.4-0.1-0.6-0.1c-0.3,0-0.5,0.1-0.7,0.2s-0.3,0.4-0.4,0.6H228.2z" class="st8"/><path d="M230.3,40.4c-0.3-0.2-0.5-0.4-0.7-0.7l0.8-0.3c0.1,0.2,0.2,0.4,0.4,0.5s0.4,0.2,0.6,0.2c0.2,0,0.4,0,0.6-0.1 c0.2-0.1,0.2-0.2,0.2-0.3c0-0.1-0.1-0.3-0.2-0.3c-0.1-0.1-0.3-0.2-0.6-0.2l-0.5-0.1c-0.3-0.1-0.6-0.2-0.8-0.4 c-0.2-0.2-0.3-0.4-0.3-0.7c0-0.2,0.1-0.4,0.2-0.6c0.1-0.2,0.3-0.3,0.6-0.4c0.2-0.1,0.5-0.1,0.8-0.1c0.4,0,0.7,0.1,1,0.2 c0.3,0.1,0.5,0.4,0.7,0.6l-0.8,0.3c-0.2-0.3-0.5-0.4-0.9-0.4c-0.2,0-0.4,0-0.5,0.1s-0.2,0.2-0.2,0.3c0,0.1,0.1,0.2,0.2,0.3 s0.3,0.1,0.5,0.2l0.6,0.1c0.4,0.1,0.7,0.2,0.9,0.4c0.2,0.2,0.3,0.4,0.3,0.7c0,0.2-0.1,0.5-0.2,0.6c-0.2,0.2-0.4,0.3-0.6,0.4 s-0.6,0.2-0.9,0.2C231,40.6,230.6,40.6,230.3,40.4z" class="st8"/><path d="M234.1,35.1h0.9v3.2h0l1.7-1.6h1.2v0l-1.7,1.5l1.7,2.3v0h-1.1l-1.3-1.8l-0.6,0.6v1.2h-0.9V35.1z" class="st8"/></g><path id="Shape_1_" d="M251.6,37.8l1.8,1.8c0.1,0.1,0.1,0.2,0,0.3l-0.1,0.1c0,0-0.1,0-0.1-0.1l-1.8-1.8l-1.8,1.8 l-0.1,0.1c0,0-0.1,0-0.1-0.1c-0.1-0.1-0.1-0.2,0-0.3l1.8-1.8l-1.8-1.8c-0.1-0.1-0.1-0.2,0-0.3s0.2-0.1,0.3,0l1.8,1.8l1.8-1.8 c0.1-0.1,0.2-0.1,0.3,0s0.1,0.2,0,0.3L251.6,37.8L251.6,37.8z" class="st2"/><path id="Rectangle-Copy-10_1_" d="M223,51.7h24c2.7,0,4.9,2.2,4.9,4.9l0,0c0,2.7-2.2,4.9-4.9,4.9h-24 c-2.7,0-4.9-2.2-4.9-4.9l0,0C218.1,53.8,220.2,51.7,223,51.7z" class="st6"/><path id="Rectangle-Copy-7_1_" d="M202.9,71.5c0-1.7,2.2-3,4.9-3H247c2.7,0,4.9,1.3,4.9,3v10c0,1.7-2.2,3-4.9,3h-39.3 c-2.7,0-4.9-1.3-4.9-3L202.9,71.5L202.9,71.5z" class="st3"/><circle id="Oval-3-Copy-5_1_" cx="194.8" cy="73.5" r="5.3" class="st3"/><path id="Rectangle-Copy-10_2_" d="M223,97.5h24c2.7,0,4.9,2.2,4.9,4.9l0,0c0,2.7-2.2,4.9-4.9,4.9h-24 c-2.7,0-4.9-2.2-4.9-4.9l0,0C218.1,99.7,220.2,97.5,223,97.5z" class="st6"/><path id="Line-2-Copy-3_1_" d="M185.5,118.4h71.4" class="st9"/><g><ellipse id="Oval-3-Copy-5_2_" cx="251" cy="139.7" class="st10" rx="7.1" ry="7.1" transform="matrix(0.3162 -0.9487 0.9487 0.3162 39.0677 333.6031)"/><path id="Shape_2_" d="M251.2,139.7l1.8,1.8c0.1,0.1,0.1,0.2,0,0.3l-0.1,0.1c0,0-0.1,0-0.1-0.1L251,140l-1.8,1.8 l-0.1,0.1c0,0-0.1,0-0.1-0.1c-0.1-0.1-0.1-0.2,0-0.3l1.8-1.8l-1.8-1.8c-0.1-0.1-0.1-0.2,0-0.3s0.2-0.1,0.3,0l1.8,1.8l1.8-1.8 c0.1-0.1,0.2-0.1,0.3,0s0.1,0.2,0,0.3L251.2,139.7L251.2,139.7z" class="st1"/></g></g></svg>