<svg xmlns="http://www.w3.org/2000/svg" xmlns:xlink="http://www.w3.org/1999/xlink" id="Layer_1" x="0" y="0" version="1.1" viewBox="0 0 368 368" xml:space="preserve" style="enable-background:new 0 0 368 368"><style type="text/css">.st0{fill:url(#XMLID_7_)}.st1{fill:#c8daea}.st2{fill:#a9c9dd}.st3{fill:url(#XMLID_8_)}</style><g id="XMLID_1_"><linearGradient id="XMLID_7_" x1="-66.831" x2="-65.31" y1="-68.176" y2="-68.176" gradientTransform="matrix(-60 139.992 -139.992 -60 -13316.416 5324.4634)" gradientUnits="userSpaceOnUse"><stop offset="0" style="stop-color:#37aee2"/><stop offset="1" style="stop-color:#1e96c8"/></linearGradient><circle id="XMLID_3_" cx="184" cy="184" r="182.5" class="st0"/><path id="XMLID_4_" d="M150.5,267.6c-5.9,0-4.9-2.2-6.9-7.9l-17.4-57.2L260,123.2" class="st1"/><path id="XMLID_5_" d="M150.5,267.6c4.6,0,6.6-2.1,9.1-4.6l24.3-23.7l-30.4-18.3" class="st2"/><linearGradient id="XMLID_8_" x1="-61.917" x2="-60.396" y1="-70.992" y2="-70.992" gradientTransform="matrix(24.9894 40.0038 -47.6951 20.9596 -1641.849 4153.2417)" gradientUnits="userSpaceOnUse"><stop offset="0" style="stop-color:#eff7fc"/><stop offset="1" style="stop-color:#fff"/></linearGradient><path id="XMLID_6_" d="M153.6,221.1l73.5,54.3c8.4,4.6,14.4,2.2,16.5-7.8l29.9-141.1c3.1-12.3-4.7-17.9-12.7-14.2 L85.2,180.2c-12,4.8-11.9,11.5-2.2,14.5l45.1,14.1l104.4-65.9c4.9-3,9.5-1.4,5.7,1.9" class="st3"/></g></svg>