<svg xmlns="http://www.w3.org/2000/svg" xmlns:xlink="http://www.w3.org/1999/xlink" id="Livello_1" x="0" y="0" version="1.1" viewBox="0 0 58.1 53.9" xml:space="preserve" style="enable-background:new 0 0 58.1 53.9"><style type="text/css">.st0{fill:none;stroke:#ed4537;stroke-width:2;stroke-miterlimit:10}.st1{fill:#ed4537}</style><path d="M29,3.2c-13.8,0-25,10-25,22.4c0,4.6,1.5,8.8,4.1,12.3C7.8,42,6.8,47.9,4,50.7c0,0,8.6-1.2,14.4-4.7	c3.2,1.4,6.8,2,10.6,2c13.8,0,25-10,25-22.4S42.8,3.2,29,3.2z" class="st0"/><path d="M22.8,22.4h12.5v9.1H22.8V22.4z M38.5,27c0,1.3,0.8,2.3,1.9,2.3v4.5c0,1.3-0.8,2.3-1.9,2.3H19.6	c-1,0-1.9-1-1.9-2.3v-4.5c1,0,1.9-1,1.9-2.3s-0.8-2.3-1.9-2.3v-4.5c0-1.3,0.8-2.3,1.9-2.3h18.8c1,0,1.9,1,1.9,2.3v4.5	C39.3,24.7,38.5,25.7,38.5,27z M36.6,22c0-0.6-0.4-1.1-0.9-1.1H22.5c-0.5,0-0.9,0.5-0.9,1.1v9.8c0,0.6,0.4,1.1,0.9,1.1h13.2	c0.5,0,0.9-0.5,0.9-1.1C36.6,31.8,36.6,22,36.6,22z" class="st1"/></svg>