<svg xmlns="http://www.w3.org/2000/svg" xmlns:xlink="http://www.w3.org/1999/xlink" id="Livello_1" x="0" y="0" version="1.1" viewBox="0 0 58.1 53.9" xml:space="preserve" style="enable-background:new 0 0 58.1 53.9"><style type="text/css">.st0{fill:none;stroke:#ed4537;stroke-width:2;stroke-miterlimit:10}.st1{fill:#ed4537}</style><path d="M30.5,3.3c-13.8,0-25,10-25,22.4c0,4.6,1.5,8.8,4.1,12.3c-0.3,4.1-1.3,9.9-4.1,12.7c0,0,8.6-1.2,14.4-4.7	c3.2,1.4,6.8,2.1,10.6,2.1c13.8,0,25-10,25-22.4S44.3,3.3,30.5,3.3z" class="st0"/><g><path d="M30.6,38.9c-1.7,0-3.1-1.4-3.1-3c0-1.7,1.4-3,3.1-3c1.7,0,3.1,1.4,3.1,3C33.6,37.6,32.3,38.9,30.6,38.9z" class="st1"/><path d="M34.8,18l-1.5,10c-0.2,1.5-1.6,2.5-3.1,2.3c-1.2-0.2-2.1-1.1-2.3-2.2l-1.6-10c-0.4-2.3,1.2-4.5,3.6-4.9 s4.6,1.2,5,3.5C34.9,17.1,34.9,17.6,34.8,18z" class="st1"/></g></svg>